<svg xmlns="http://www.w3.org/2000/svg" width="30" height="30" viewBox="0 0 30 30">
    <g fill="none" fill-rule="evenodd">
        <circle cx="15" cy="15" r="15" fill="#55ACEE"/>
        <path fill="#FFF" fill-rule="nonzero" d="M12.252 22.258c6.574 0 10.169-5.585 10.169-10.429 0-.158 0-.316-.01-.473a7.378 7.378 0 0 0 1.783-1.898 6.995 6.995 0 0 1-2.053.577 3.663 3.663 0 0 0 1.571-2.027 7.055 7.055 0 0 1-2.27.89 3.513 3.513 0 0 0-4.293-.722c-1.426.783-2.162 2.449-1.797 4.064-2.873-.147-5.55-1.54-7.365-3.83-.949 1.676-.464 3.818 1.106 4.894a3.48 3.48 0 0 1-1.622-.46v.047c0 1.745 1.2 3.248 2.867 3.593a3.482 3.482 0 0 1-1.614.063c.469 1.493 1.81 2.516 3.34 2.545a7.058 7.058 0 0 1-5.29 1.52 9.935 9.935 0 0 0 5.478 1.643"/>
    </g>
</svg>
